<svg width="95" height="21" viewBox="0 0 95 21" fill="none" xmlns="http://www.w3.org/2000/svg">
<g clip-path="url(#clip0_2_8)">
<path d="M27.0183 17.6392C28.2965 17.6414 29.5257 17.0889 30.4478 16.0975L29.0416 14.5224C28.4903 15.0914 27.768 15.407 27.0183 15.4063C26.6255 15.4084 26.2363 15.3235 25.8729 15.1565C25.5095 14.9896 25.1791 14.7438 24.9007 14.4335C24.6223 14.1231 24.4014 13.7542 24.2507 13.3479C24.1 12.9416 24.0224 12.506 24.0224 12.0661C24.0224 11.6261 24.1 11.1905 24.2507 10.7842C24.4014 10.378 24.6223 10.009 24.9007 9.69867C25.1791 9.38829 25.5095 9.14258 25.8729 8.97562C26.2363 8.80867 26.6255 8.72377 27.0183 8.7258C27.7707 8.72441 28.4948 9.04628 29.0416 9.6251L30.4478 8.03462C29.5257 7.04325 28.2965 6.49068 27.0183 6.49296C25.698 6.495 24.4324 7.08336 23.4988 8.12904C22.5652 9.17473 22.0399 10.5924 22.0381 12.0712C22.0424 13.5482 22.5687 14.9633 23.502 16.0067C24.4353 17.0502 25.6996 17.6371 27.0183 17.6392V17.6392Z" fill="#4097DB"/>
<path d="M41.6768 12.0609C41.6749 10.5821 41.1497 9.16445 40.2161 8.11877C39.2825 7.07308 38.0168 6.48474 36.6966 6.4827C35.3771 6.48609 34.1126 7.07505 33.18 8.12059C32.2474 9.16612 31.7228 10.583 31.7209 12.0609C31.7228 13.5389 32.2474 14.9558 33.18 16.0013C34.1126 17.0468 35.3771 17.6358 36.6966 17.6392C38.0168 17.6371 39.2825 17.0488 40.2161 16.0031C41.1497 14.9574 41.6749 13.5397 41.6768 12.0609V12.0609ZM36.6966 15.4192C36.3028 15.4192 35.913 15.3323 35.5492 15.1636C35.1854 14.9948 34.8549 14.7474 34.5765 14.4356C34.2981 14.1237 34.0772 13.7535 33.9266 13.3461C33.7759 12.9386 33.6983 12.5019 33.6983 12.0609C33.6983 11.6208 33.776 11.1849 33.9269 10.7785C34.0777 10.3721 34.2988 10.003 34.5775 9.69262C34.8561 9.38222 35.1867 9.13655 35.5504 8.96975C35.9141 8.80295 36.3036 8.71829 36.6966 8.72066C37.4875 8.72066 38.246 9.07259 38.8053 9.69901C39.3645 10.3254 39.6787 11.175 39.6787 12.0609C39.6808 12.5011 39.6053 12.9374 39.4563 13.3447C39.3074 13.7521 39.0881 14.1224 38.811 14.4345C38.5338 14.7466 38.2044 14.9942 37.8415 15.1632C37.4786 15.3322 37.0895 15.4192 36.6966 15.4192V15.4192Z" fill="#4097DB"/>
<path d="M53.704 17.6392V6.4827H51.5638L48.6573 14.6381L45.7417 6.4827H43.5991V17.6392H45.5834V12.0609L47.5814 17.6392H49.7217L51.7198 12.0609V17.6392H53.704Z" fill="#4097DB"/>
<path d="M57.6129 13.1812H58.4273C59.2162 13.1778 59.9718 12.8244 60.5286 12.1983C61.0854 11.5723 61.398 10.7246 61.398 9.84094C61.3998 9.401 61.324 8.96497 61.1749 8.55793C61.0259 8.15089 60.8065 7.78085 60.5294 7.46904C60.2523 7.15724 59.9229 6.90981 59.5602 6.74098C59.1975 6.57215 58.8086 6.48526 58.4158 6.48526H55.631V17.6392H57.6152L57.6129 13.1812ZM57.6129 8.72066H58.4135C58.6784 8.72066 58.9324 8.83834 59.1199 9.04787C59.3074 9.25741 59.4131 9.5417 59.4137 9.83837C59.4107 10.133 59.3039 10.4144 59.1166 10.6213C58.9293 10.8282 58.6766 10.9439 58.4135 10.9432H57.6129V8.72066Z" fill="#4097DB"/>
<path d="M67.7224 6.4827H65.6074L62.0013 17.6392H64.1186L65.1303 14.5173H68.195L69.2089 17.6392H71.324L67.7224 6.4827ZM65.8574 12.2819L66.658 9.76643L67.4724 12.2819H65.8574Z" fill="#4097DB"/>
<path d="M81.2752 17.6392V6.4827H79.2909V13.9315L75.3086 6.4827H72.9825V17.6392H74.9691V10.2058L78.9629 17.6392H81.2752Z" fill="#4097DB"/>
<path d="M85.1566 6.4827H82.936L85.5374 12.3256V17.6392H87.5217V12.3256L90.1253 6.4827H87.9048L86.5376 9.57373L85.1566 6.4827Z" fill="#4097DB"/>
<path d="M57.1496 0C57.1496 0.0231249 57.1681 0.0436804 57.1751 0.0642359C57.1681 0.0436804 57.1589 0.0231249 57.1496 0Z" fill="#FFFBF8"/>
<path d="M0.0986259 10.1339V10.1544V10.2032C0.0986259 10.2032 0.0986259 10.2212 0.0986259 10.2315V10.2572V10.2726C0.0986259 10.3035 0.0986287 10.3343 0.0871589 10.3651C0.0756891 10.3959 0.0871589 10.4216 0.0871589 10.4499V10.4833C0.0871589 10.5167 0.0871547 10.5527 0.0756849 10.5861C0.064215 10.6195 0.0756849 10.6375 0.0756849 10.6632V10.6889C0.0745514 10.6982 0.0745514 10.7077 0.0756849 10.7171C0.0746398 10.7282 0.0746398 10.7394 0.0756849 10.7505C0.0746116 10.7556 0.0746116 10.7609 0.0756849 10.7659C0.0769263 10.7745 0.0769263 10.7831 0.0756849 10.7916V10.8353C0.0756849 10.8713 0.0756849 10.9073 0.0756849 10.9509C0.0756849 10.9689 0.0756849 10.9869 0.0756849 11.0049C0.0756849 11.0229 0.0756849 11.0409 0.0756849 11.0589V11.0846C0.0756849 11.1051 0.0756849 11.1257 0.0756849 11.1462V11.1745C0.0756849 11.213 0.0756849 11.249 0.0756849 11.285V11.4314V11.6113C0.0951859 13.395 0.744257 15.0975 1.88104 16.3468C3.01337 17.6041 4.54417 18.3081 6.13864 18.3047C6.39247 18.3035 6.64602 18.2855 6.89794 18.2507C7.01035 18.2353 7.12734 18.2173 7.23516 18.1942C6.40023 17.6276 5.68052 16.8713 5.12241 15.9742C4.91914 15.6478 4.7389 15.3042 4.58333 14.9464C4.54663 14.8668 4.51451 14.7845 4.4824 14.7049C4.47764 14.696 4.47379 14.6865 4.47092 14.6766C4.07432 13.6796 3.87029 12.6 3.8722 11.5085C3.85876 9.94114 4.269 8.40588 5.04901 7.1045C5.23612 6.8046 5.44154 6.51957 5.66379 6.25144C6.38174 5.38145 7.26754 4.70653 8.25368 4.27812C8.55254 4.1481 8.85915 4.04164 9.17126 3.95951C9.69767 3.82193 10.2365 3.75295 10.777 3.75396C12.0245 3.75131 13.2495 4.12496 14.3235 4.83568V4.83568L14.2937 4.80485L14.2547 4.76117H14.2409L14.2042 4.72263C14.1924 4.70763 14.1793 4.69388 14.1652 4.68152L14.1193 4.63527L14.101 4.61471H14.0895L14.0253 4.55048C14.0033 4.5253 13.9795 4.50209 13.9542 4.4811L13.9312 4.45798L13.8831 4.41173L13.851 4.3809L13.8326 4.36549H13.8188L13.7615 4.31409L13.7179 4.27555L13.578 4.15222C13.564 4.14254 13.551 4.13136 13.539 4.11882L13.5229 4.10597L13.4954 4.08541L13.4587 4.05458H13.4472L13.4266 4.03916H13.4128L13.3715 4.00576H13.36C13.3256 3.9775 13.2912 3.94923 13.2545 3.92354L13.2063 3.88756H13.1949L13.1215 3.83361H13.1054L13.0549 3.79506L12.977 3.73854L12.8967 3.68201L12.8531 3.65375H12.8347L12.8095 3.63576H12.7934L12.7361 3.59721H12.72H12.7017L12.6489 3.56381C12.5296 3.48929 12.408 3.41736 12.2865 3.34798L12.2062 3.30431L12.1328 3.26576C12.0479 3.21951 11.9699 3.18098 11.9034 3.145L11.8506 3.11673H11.8346L11.8024 3.10131L11.768 3.0859H11.752L11.5432 2.9934L11.5065 2.97798L11.4698 2.96257L11.151 2.8418L11.089 2.82125L11.0271 2.79812H10.9881L10.855 2.75702H10.8367H10.8092H10.6165L10.3481 2.68249L10.1875 2.64396C10.0957 2.62084 10.0063 2.60028 9.91451 2.5823L9.81357 2.56174L9.71264 2.54375H9.66676H9.60712L9.31578 2.50265C9.12538 2.48209 8.93728 2.46666 8.74688 2.45895C8.64136 2.45895 8.53583 2.45895 8.42801 2.45895C8.25138 2.45895 8.07245 2.45896 7.89352 2.47951H7.83847C7.64119 2.49493 7.4462 2.51806 7.25121 2.54889L7.14799 2.56688L0.114685 10.4448L0.0986259 10.1339Z" fill="#4097DB"/>
<path d="M14.8278 13.5272V13.5118C14.8289 13.499 14.8289 13.486 14.8278 13.4732V13.4219V13.3987C14.8289 13.3937 14.8289 13.3884 14.8278 13.3833V13.3242V13.2831C14.8278 13.2446 14.8278 13.206 14.8393 13.17C14.8393 13.1366 14.8393 13.1032 14.8507 13.0698V12.9902V12.9645C14.8519 12.9465 14.8519 12.9285 14.8507 12.9105V12.8951C14.8507 12.872 14.8507 12.8489 14.8507 12.8232C14.8507 12.7898 14.8507 12.7538 14.8507 12.7127V12.6048V12.5637C14.8507 12.5328 14.8507 12.5046 14.8507 12.4737C14.8507 12.4429 14.8507 12.3915 14.8507 12.353V12.3298C14.8507 12.3042 14.8507 12.2733 14.8507 12.245V12.06V12.001C14.8299 10.2171 14.1801 8.51482 13.0431 7.26548C11.9272 6.03249 10.4264 5.33482 8.85891 5.32042C8.49116 5.31964 8.12412 5.35662 7.76239 5.4309C8.59671 5.99083 9.31654 6.74108 9.87513 7.63291C10.6924 8.94086 11.129 10.4996 11.1253 12.096C11.1287 13.6924 10.6921 15.251 9.87513 16.5591C9.08075 17.8395 7.96215 18.8239 6.66358 19.3855C5.85816 19.7305 5.0025 19.9047 4.14022 19.8994C2.89249 19.902 1.66725 19.5274 0.59375 18.8151L0.609802 18.8305L0.625862 18.8511L0.667152 18.8948L0.742856 18.9744L0.793324 19.0284L0.885081 19.1234L0.947016 19.1851H0.960779L1.02042 19.2442V19.257C1.03624 19.273 1.05311 19.2876 1.07089 19.3007L1.11906 19.3444L1.15577 19.3778L1.2957 19.4986L1.32552 19.5243L1.35993 19.5551L1.38058 19.5705H1.39205L1.4471 19.6168L1.46545 19.6296L1.49298 19.6527L1.53427 19.6861H1.55033L1.65585 19.7684L1.70403 19.8043H1.7155L1.7545 19.8326L1.79579 19.8634L1.86002 19.9097L1.92425 19.9559H1.9793L2.07335 20.0587L2.11924 20.0895L2.20641 20.1461L2.27752 20.1897C2.40139 20.2694 2.52756 20.3439 2.65373 20.4133L2.73631 20.4595L2.8166 20.5006L3.04599 20.6214L3.10334 20.6497H3.12399L3.20199 20.6856L3.41074 20.7756L3.47956 20.8038L3.79612 20.9246L3.85806 20.9477L3.95211 20.9811H3.97735L4.08975 21.0171L4.1471 21.0351C4.3765 21.107 4.60589 21.1661 4.84905 21.2124L4.9454 21.2304L5.04175 21.2458L5.14038 21.2612C5.53023 21.3229 5.92347 21.3538 6.31719 21.3537C6.71167 21.3539 7.10568 21.3229 7.49629 21.2612V21.2612L7.58805 21.2458L14.8255 13.5426C14.8269 13.5404 14.8278 13.5379 14.8282 13.5352C14.8286 13.5325 14.8285 13.5298 14.8278 13.5272V13.5272Z" fill="#1C4B70"/>
</g>
<defs>
<clipPath id="clip0_2_8">
<rect width="95" height="21" fill="white"/>
</clipPath>
</defs>
</svg>
